<svg width="38" height="38" viewBox="0 0 38 38" fill="none" xmlns="http://www.w3.org/2000/svg">
<circle cx="19" cy="19" r="19" fill="white"/>
<path fill-rule="evenodd" clip-rule="evenodd" d="M15.2875 12.5833C13.277 12.5833 11.6666 14.1901 11.6666 16.1481C11.6666 17.1019 12.046 17.9682 12.669 18.6102L18.9999 25.0279L25.216 18.7243C25.2222 18.7179 25.2286 18.7116 25.2351 18.7054C25.9149 18.0552 26.3333 17.1496 26.3333 16.1481C26.3333 14.1901 24.723 12.5833 22.7125 12.5833C22.276 12.5833 21.765 12.8278 21.1965 13.3314C20.6423 13.8222 20.1461 14.459 19.7464 15.0197C19.5743 15.2609 19.2963 15.4042 19 15.4042C18.7037 15.4042 18.4256 15.2609 18.2536 15.0197C17.8539 14.459 17.3577 13.8222 16.8035 13.3314C16.2349 12.8278 15.7239 12.5833 15.2875 12.5833ZM9.83331 16.1481C9.83331 13.1561 12.286 10.75 15.2875 10.75C16.3857 10.75 17.3203 11.3401 18.0191 11.959C18.3789 12.2777 18.708 12.6325 19 12.9818C19.2919 12.6325 19.6211 12.2777 19.9809 11.959C20.6796 11.3401 21.6143 10.75 22.7125 10.75C25.714 10.75 28.1666 13.1561 28.1666 16.1481C28.1666 17.6689 27.5302 19.0421 26.5123 20.0207L19.6527 26.977C19.4804 27.1516 19.2454 27.25 19.0001 27.25C18.7548 27.25 18.5197 27.1517 18.3474 26.9771L11.3566 19.8904C10.4153 18.9221 9.83331 17.6023 9.83331 16.1481Z" fill="black"/>
</svg>
