<svg width="24" height="24" viewBox="0 0 24 24" fill="none" xmlns="http://www.w3.org/2000/svg">
<path fill-rule="evenodd" clip-rule="evenodd" d="M11.3861 3.21065C11.7472 2.92978 12.2529 2.92978 12.614 3.21065L21.614 10.2106C22.0499 10.5497 22.1285 11.178 21.7894 11.6139C21.4503 12.0499 20.8221 12.1284 20.3861 11.7894L20 11.489V20C20 21.1046 19.1046 22 18 22H6C4.89543 22 4 21.1046 4 20V11.4891L3.61399 11.7894C3.17804 12.1284 2.54976 12.0499 2.21069 11.6139C1.87162 11.178 1.95016 10.5497 2.38611 10.2106L11.3861 3.21065ZM11 15C10.4477 15 10 15.4477 10 16V20H14V16C14 15.4477 13.5523 15 13 15H11Z" fill="#2DC6F2"/>
</svg>
