<svg width="128" height="24" viewBox="0 0 128 24" fill="none" xmlns="http://www.w3.org/2000/svg">
<path d="M3.81125 10.233L7.81454 9.42162C8.09179 9.36543 8.33226 9.19445 8.47639 8.95104L11.1395 4.45328C11.5268 3.79927 12.4732 3.79927 12.8605 4.45328L15.5236 8.95104C15.6678 9.19445 15.9082 9.36543 16.1855 9.42162L20.1888 10.233C20.9675 10.3908 21.26 11.3499 20.7019 11.9154L17.3718 15.2899C17.1392 15.5256 17.0384 15.8611 17.1025 16.186L17.8527 19.987C18.0141 20.8046 17.1631 21.4493 16.4197 21.0726L12.452 19.0624C12.1679 18.9184 11.8322 18.9184 11.548 19.0624L7.58036 21.0727C6.8369 21.4493 5.98594 20.8046 6.14732 19.987L6.89752 16.186C6.96163 15.8611 6.86079 15.5256 6.62822 15.2899L3.29811 11.9154C2.74002 11.3499 3.03254 10.3908 3.81125 10.233Z" fill="#FDB92C"/>
<path d="M29.8113 10.233L33.8145 9.42162C34.0918 9.36543 34.3323 9.19445 34.4764 8.95104L37.1395 4.45328C37.5268 3.79927 38.4732 3.79927 38.8605 4.45328L41.5236 8.95104C41.6678 9.19445 41.9082 9.36543 42.1855 9.42162L46.1888 10.233C46.9675 10.3908 47.26 11.3499 46.7019 11.9154L43.3718 15.2899C43.1392 15.5256 43.0384 15.8611 43.1025 16.186L43.8527 19.987C44.0141 20.8046 43.1631 21.4493 42.4197 21.0726L38.452 19.0624C38.1679 18.9184 37.8322 18.9184 37.548 19.0624L33.5804 21.0727C32.8369 21.4493 31.9859 20.8046 32.1473 19.987L32.8975 16.186C32.9616 15.8611 32.8608 15.5256 32.6282 15.2899L29.2981 11.9154C28.74 11.3499 29.0325 10.3908 29.8113 10.233Z" fill="#FDB92C"/>
<path d="M55.8113 10.233L59.8145 9.42162C60.0918 9.36543 60.3323 9.19445 60.4764 8.95104L63.1395 4.45328C63.5268 3.79927 64.4732 3.79927 64.8605 4.45328L67.5236 8.95104C67.6678 9.19445 67.9082 9.36543 68.1855 9.42162L72.1888 10.233C72.9675 10.3908 73.26 11.3499 72.7019 11.9154L69.3718 15.2899C69.1392 15.5256 69.0384 15.8611 69.1025 16.186L69.8527 19.987C70.0141 20.8046 69.1631 21.4493 68.4197 21.0726L64.452 19.0624C64.1679 18.9184 63.8322 18.9184 63.548 19.0624L59.5804 21.0727C58.8369 21.4493 57.9859 20.8046 58.1473 19.987L58.8975 16.186C58.9616 15.8611 58.8608 15.5256 58.6282 15.2899L55.2981 11.9154C54.74 11.3499 55.0325 10.3908 55.8113 10.233Z" fill="#FDB92C"/>
<path d="M81.8113 10.233L85.8145 9.42162C86.0918 9.36543 86.3323 9.19445 86.4764 8.95104L89.1395 4.45328C89.5268 3.79927 90.4732 3.79927 90.8605 4.45328L93.5236 8.95104C93.6678 9.19445 93.9082 9.36543 94.1855 9.42162L98.1888 10.233C98.9675 10.3908 99.26 11.3499 98.7019 11.9154L95.3718 15.2899C95.1392 15.5256 95.0384 15.8611 95.1025 16.186L95.8527 19.987C96.0141 20.8046 95.1631 21.4493 94.4197 21.0726L90.452 19.0624C90.1679 18.9184 89.8322 18.9184 89.548 19.0624L85.5804 21.0727C84.8369 21.4493 83.9859 20.8046 84.1473 19.987L84.8975 16.186C84.9616 15.8611 84.8608 15.5256 84.6282 15.2899L81.2981 11.9154C80.74 11.3499 81.0325 10.3908 81.8113 10.233Z" fill="#FDB92C"/>
<path d="M107.811 10.233L111.815 9.42162C112.092 9.36543 112.332 9.19445 112.476 8.95104L115.14 4.45328C115.527 3.79927 116.473 3.79927 116.86 4.45328L119.524 8.95104C119.668 9.19445 119.908 9.36543 120.185 9.42162L124.189 10.233C124.967 10.3908 125.26 11.3499 124.702 11.9154L121.372 15.2899C121.139 15.5256 121.038 15.8611 121.103 16.186L121.853 19.987C122.014 20.8046 121.163 21.4493 120.42 21.0726L116.452 19.0624C116.168 18.9184 115.832 18.9184 115.548 19.0624L111.58 21.0727C110.837 21.4493 109.986 20.8046 110.147 19.987L110.898 16.186C110.962 15.8611 110.861 15.5256 110.628 15.2899L107.298 11.9154C106.74 11.3499 107.033 10.3908 107.811 10.233Z" fill="#ECF0F6"/>
</svg>
