<svg width="18" height="19" viewBox="0 0 18 19" fill="none" xmlns="http://www.w3.org/2000/svg">
<path d="M0.811254 7.23295L4.81454 6.42162C5.09179 6.36543 5.33226 6.19445 5.47639 5.95104L8.13953 1.45328C8.52678 0.799266 9.47324 0.799266 9.86049 1.45328L12.5236 5.95104C12.6678 6.19445 12.9082 6.36543 13.1855 6.42162L17.1888 7.23295C17.9675 7.39077 18.26 8.3499 17.7019 8.91543L14.3718 12.2899C14.1392 12.5256 14.0384 12.8611 14.1025 13.186L14.8527 16.987C15.0141 17.8046 14.1631 18.4493 13.4197 18.0726L9.45197 16.0624C9.16786 15.9184 8.83216 15.9184 8.54805 16.0624L4.58036 18.0727C3.8369 18.4493 2.98594 17.8046 3.14732 16.987L3.89752 13.186C3.96163 12.8611 3.86079 12.5256 3.62822 12.2899L0.298107 8.91543C-0.259985 8.3499 0.0325444 7.39077 0.811254 7.23295Z" fill="#FDB92C"/>
</svg>
